<svg xmlns="http://www.w3.org/2000/svg" height="512" width="512" viewBox="0 0 512 512">
  <defs fill="#302d35">
    <clipPath id="a">
      <path fill-opacity=".67" d="M0 0h666v666H0z"></path>
    </clipPath>
  </defs>
  <g clip-path="url(#a)" transform="scale(.77)" fill="#302d35">
    <g fill-rule="evenodd" stroke-width="1pt">
      <path fill="#304d8c" d="M0 0h999v74H0z"></path>
      <path fill="#f7f5fc" d="M0 74h999v74H0z"></path>
      <path fill="#304d8c" d="M0 148h999v74H0z"></path>
      <path fill="#f7f5fc" d="M0 222h999v74H0z"></path>
      <path fill="#304d8c" d="M0 296h999v74H0z"></path>
      <path fill="#f7f5fc" d="M0 370h999v74H0z"></path>
      <path fill="#304d8c" d="M0 444h999v74H0z"></path>
      <path fill="#f7f5fc" d="M0 518h999v74H0z"></path>
      <path fill="#304d8c" d="M0 592h999v74H0zM0 0h370v370H0z"></path>
      <g fill="#f7f5fc">
        <path d="M148 0h74v370h-74z"></path>
        <path d="M0 148h370v74H0z"></path>
      </g>
    </g>
  </g>
</svg>